<?xml version="1.0" encoding="utf-8"?>
<!-- Generator: Adobe Illustrator 22.1.0, SVG Export Plug-In . SVG Version: 6.00 Build 0)  -->
<svg version="1.1" xmlns="http://www.w3.org/2000/svg" xmlns:xlink="http://www.w3.org/1999/xlink" x="0px" y="0px"
	 viewBox="0 0 300.9 312" style="enable-background:new 0 0 300.9 312;" xml:space="preserve">
<style type="text/css">
	.st0{fill:#D33833;}
	.st1{fill:#EF3D3A;}
	.st2{fill:#231F20;}
	.st3{fill:#F0D6B7;}
	.st4{fill:#335061;}
	.st5{fill:#6D6B6D;}
	.st6{fill:#DCD9D8;}
	.st7{fill:#F7E4CD;}
	.st8{fill:#49728B;}
	.st9{fill:#FFFFFF;}
	.st10{fill:none;stroke:#D33833;stroke-width:2;}
	.st11{fill:#81B0C4;}
	.st12{fill:#1D1919;}
	.st13{fill:url(#SVGID_1_);}
	.st14{fill:#C8DAEA;}
	.st15{fill:#A9C9DD;}
	.st16{fill:url(#SVGID_2_);}
</style>
<g id="svg2" inkscape:version="0.48.0 r9654" sodipodi:docname="logo.svg" xmlns:cc="http://creativecommons.org/ns#" xmlns:dc="http://purl.org/dc/elements/1.1/" xmlns:inkscape="http://www.inkscape.org/namespaces/inkscape" xmlns:rdf="http://www.w3.org/1999/02/22-rdf-syntax-ns#" xmlns:sodipodi="http://sodipodi.sourceforge.net/DTD/sodipodi-0.dtd" xmlns:svg="http://www.w3.org/2000/svg">
	
		<sodipodi:namedview  bordercolor="#666666" borderopacity="1" gridtolerance="10" guidetolerance="10" id="namedview4" inkscape:current-layer="g10" inkscape:cx="-65.859116" inkscape:cy="172.53076" inkscape:pageopacity="0" inkscape:pageshadow="2" inkscape:window-height="844" inkscape:window-maximized="0" inkscape:window-width="1500" inkscape:window-x="2189" inkscape:window-y="496" inkscape:zoom="1" objecttolerance="10" pagecolor="#ffffff" showgrid="false">
		</sodipodi:namedview>
	<g id="g10" transform="matrix(1.25,0,0,-1.25,0,312)" inkscape:groupmode="layer" inkscape:label="ink_ext_XXXXXX">
		<g id="g3393">
			<path id="path22" inkscape:connector-curvature="0" class="st0" d="M177.7,129.3c0-49.4-39.2-89.5-87.5-89.5
				c-48.3,0-87.5,40.1-87.5,89.5c0,49.4,39.2,89.5,87.5,89.5C138.5,218.8,177.7,178.7,177.7,129.3"/>
			<path id="path24" inkscape:connector-curvature="0" class="st1" d="M6.3,107.1c0,0-6.3,93.3,79.7,96l-6,10l-46.7-15.7L20,182.1
				L8.3,159.8l-6.7-26l2-17.3"/>
			<path id="path26" inkscape:connector-curvature="0" class="st2" d="M30.3,190.3c-15.4-15.7-24.9-37.4-24.9-61.4l0,0
				c0-24,9.5-45.7,24.9-61.4l0,0c15.4-15.7,36.5-25.4,59.9-25.4l0,0c23.4,0,44.6,9.7,59.9,25.4l0,0c15.4,15.7,24.9,37.4,24.9,61.4
				l0,0c0,24-9.5,45.7-24.9,61.4l0,0c-15.4,15.7-36.5,25.4-59.9,25.4l0,0C66.8,215.7,45.6,206,30.3,190.3L30.3,190.3z M26.4,63.7
				C10.1,80.4,0,103.5,0,128.9l0,0c0,25.4,10.1,48.5,26.4,65.2l0,0c16.3,16.7,38.9,27,63.8,27l0,0c24.9,0,47.5-10.3,63.8-27l0,0
				c16.3-16.7,26.4-39.7,26.4-65.2l0,0c0-25.4-10.1-48.5-26.4-65.2l0,0c-16.3-16.7-38.9-27-63.8-27l0,0
				C65.3,36.7,42.7,47.1,26.4,63.7L26.4,63.7"/>
			<path id="path28" inkscape:connector-curvature="0" class="st3" d="M127.1,128.8l-13.3-2l-18-2L84,124.4l-11.3,0.3l-8.7,2.7
				l-7.7,8.3l-6,17l-1.3,3.7l-8,2.7l-4.7,7.7l-3.3,11l3.7,9.7l8.7,3l7-3.3l3.3-7.3l4,0.7l1.3,1.7l-1.3,7.7l-0.3,9.7l2,13.3l-0.1,7.6
				l6.1,9.7l10.7,7.7l18.7,8l20.7-3l18-13l8.3-13.3l5.3-9.7l1.3-24l-4-20.7l-7.3-18.3l-7-9.7"/>
			<path id="path30" inkscape:connector-curvature="0" class="st4" d="M115.7,71.1l-47.7-2v-8l4-28l-2-2.3L36.7,42.1l-2.3,4L31,83.8
				l-7.7,22.7l-1.7,5.3l26.7,18.3l8.3,3.3l7.3-9l6.3-5.7l7.3-2.3l3.3-1l4-17.3l3-3.7l7.7,2.7l-5.3-10.3l29-13.7L115.7,71.1"/>
			<path id="path32" inkscape:connector-curvature="0" class="st5" d="M36.7,187.4l8.7,3l7-3.3l3.3-7.3l4,0.7l1,4l-2,7.7l2,18.3
				l-1.7,10l6,7l13,10.3l-3.7,5l-18.3-9l-7.7-6l-4.3-9.3l-6.7-9l-2-10.7L36.7,187.4"/>
			<path id="path34" inkscape:connector-curvature="0" class="st6" d="M50.4,218.8c0,0,5,12.3,25,18.3s1,4.3,1,4.3l-21.7-8.3
				l-8.3-8.3l-3.7-6.7L50.4,218.8"/>
			<path id="path36" inkscape:connector-curvature="0" class="st6" d="M40.4,189.8c0,0-7,23.3,19.7,26.7l-1,4l-18.3-4.3l-5.3-17.3
				l1.3-11.3L40.4,189.8"/>
			<path id="path38" inkscape:connector-curvature="0" class="st7" d="M51,158.8l4.4,4.2c0,0,2-0.2,2.3-2.6
				c0.3-2.3,1.3-23.3,15.7-34.7c1.3-1-10.7,1.7-10.7,1.7L52,144.1"/>
			<path id="path40" inkscape:connector-curvature="0" class="st7" d="M112.4,165.1c0,0,0.8,10.1,3.5,9.3c2.7-0.8,2.7-3.5,2.7-3.5
				S112,166.7,112.4,165.1"/>
			<path id="path42" inkscape:connector-curvature="0" class="st7" d="M140.1,202.1c0,0-5.5-1.2-6-6c-0.5-4.8,6-1,7-0.7"/>
			<path id="path44" inkscape:connector-curvature="0" class="st7" d="M99.7,201.8c0,0-7.3-1-7.3-5.7c0-4.7,8.3-4.3,10.7-2.3"/>
			<path id="path46" inkscape:connector-curvature="0" class="st7" d="M54.4,180.1c0,0-12.7,7.7-14,0.3c-1.3-7.3-4.3-12.7,2-20.3
				l-4.3,1.3l-4,10.3l-1.3,10l7.7,8l8.7-0.7l5-4L54.4,180.1"/>
			<path id="path48" inkscape:connector-curvature="0" class="st7" d="M60.4,201.1c0,0,5.7,29.3,34.3,35c23.6,4.7,36-1,40.7-6.3
				c0,0-21,25-41,17.3c-20-7.7-34.7-21.7-34.3-30.7C60.6,201.1,60.4,201.1,60.4,201.1"/>
			<path id="path50" inkscape:connector-curvature="0" class="st7" d="M137.7,226.4c0,0-9.7,0.3-10-8.3c0,0,0-1.3,0.7-2.7
				c0,0,7.7,8.7,12.3,4"/>
			<path id="path52" inkscape:connector-curvature="0" class="st7" d="M95.4,214.5c0,0-1.7,13.3-13,5.6c-7.3-5-6.7-12-5.3-13.3
				c1.3-1.3,1-4,2-2.2c1,1.8,0.7,7.8,4.3,9.5C87,215.8,93.1,217.6,95.4,214.5"/>
			<path id="path54" inkscape:connector-curvature="0" class="st8" d="M64,124.4l-31.3-14c0,0,13-51.7,6.3-67.7l-4.7,1.7L34,64.1
				l-8.7,37.3l-3.7,10.3l32.7,22L64,124.4"/>
			<path id="path56" inkscape:connector-curvature="0" class="st8" d="M67.3,95.9l4.4-5.4v-20h-5.3c0,0-0.7,14-0.7,15.7
				c0,1.7,0.7,7.7,0.7,7.7"/>
			<path id="path58" inkscape:connector-curvature="0" class="st8" d="M67.4,67.4l-15-0.7l4.3-3l10.7-1.7"/>
			<path id="path60" inkscape:connector-curvature="0" class="st4" d="M118.7,70.8l12.3,0.3l3-30.7l-12.7-1.7L118.7,70.8"/>
			<path id="path62" inkscape:connector-curvature="0" class="st4" d="M122.1,70.8l18.7,1c0,0,7.7,19.3,7.7,20.3s6.7,28,6.7,28
				l-15,15.7l-3,2.7l-8-8v-31L122.1,70.8"/>
			<path id="path64" inkscape:connector-curvature="0" class="st8" d="M130.4,73.1l-11.7-2.3l1.7-9.3c4.3-2,11.7,3.3,11.7,3.3"/>
			<path id="path66" inkscape:connector-curvature="0" class="st8" d="M130.7,131.4l23.3-17.3l0.7,8L137,138.4L130.7,131.4"/>
			<path id="path68" inkscape:connector-curvature="0" class="st9" d="M79,5.1l-6.9,28l-3.4,20.7L68,69.1l31.2,1.7l19.4,0l-1.8-35
				l3-27l-0.3-5l-25.3-2L79,5.1"/>
			<path id="path70" inkscape:connector-curvature="0" class="st6" d="M114.4,71.1c0,0-1.7-34.7,3.3-59.3c0,0-10-6.3-24.7-8l28,1
				l3.3,2l-4,54.7l-1,11.7"/>
			<path id="path72" inkscape:connector-curvature="0" class="st9" d="M134.6,43.1l13,3.7l24.7,1.3l3.7,11.3l-6.7,19.7l-7.7,1
				L151,76.8l-10.2-5l-5.4,1l-4.2-1.7"/>
			<path id="path74" inkscape:connector-curvature="0" class="st6" d="M134.4,49.8c0,0,8.7,4,10,3.7l-3.7,18.3l4.3,1.7
				c0,0,3-17.3,3-19.3c0,0,18.7-1,20.3-1c0,0,4,7.7,3,15.7l3.7-10.7l0.3-6l-5.3-8l-6-1.3l-10,0.3l-3.3,4.3L139,45.8l-3.7-1.3"/>
			<path id="path76" inkscape:connector-curvature="0" class="st9" d="M121.3,73.4L114,92.1l-7.7,11c0,0,1.7,4.7,4,4.7s7.7,0,7.7,0
				l7.3-2.7l-0.7-12.3L121.3,73.4"/>
			<path id="path78" inkscape:connector-curvature="0" class="st6" d="M122.7,79.8c0,0-9.3,18-9.3,20.7c0,0,1.7,4,4,3
				s7.3-3.7,7.3-3.7v6.3l-11.3,2.3l-7.7-1l13-30.7l2.7-0.3"/>
			<path id="path80" inkscape:connector-curvature="0" class="st9" d="M82,123.8l-9.2,1l-8.7,2.7v-3l4.2-4.7l13.3-6"/>
			<path id="path82" inkscape:connector-curvature="0" class="st6" d="M67.1,122.8c0,0,10.3-4.3,13.7-3.3l0.3-4l-9.3,2l-5.7,4
				L67.1,122.8"/>
			<path id="path84" inkscape:connector-curvature="0" class="st0" d="M134.6,106.6c-5.7,0.2-10.8,0.8-15.2,2.1
				c0.3,1.8-0.3,3.6,0.2,5c1.2,0.9,3.3,0.9,5.2,1.1c-1.6,0.8-3.9,1.1-5.8,0.7c0,1.3-0.6,2.1-1,3.1c3.2,1.1,10.7,8.6,14.9,6.1
				c2-1.2,2.9-7.9,3-11.1C136.1,110.8,135.7,108.1,134.6,106.6"/>
			<path id="path86" inkscape:connector-curvature="0" class="st10" d="M134.6,106.6c-5.7,0.2-10.8,0.8-15.2,2.1
				c0.3,1.8-0.3,3.6,0.2,5c1.2,0.9,3.3,0.9,5.2,1.1c-1.6,0.8-3.9,1.1-5.8,0.7c0,1.3-0.6,2.1-1,3.1c3.2,1.1,10.7,8.6,14.9,6.1
				c2-1.2,2.9-7.9,3-11.1C136.1,110.8,135.7,108.1,134.6,106.6z"/>
			<path id="path88" inkscape:connector-curvature="0" class="st0" d="M107.5,115.9c0-0.4,0-0.9-0.1-1.3c-1.8-1.2-4.6-1.1-6.6-2.1
				c2.9-0.1,5.1-0.8,7.1-1.8c0-1.1-0.1-2.2-0.1-3.2c-3.2-2.2-6.2-5.5-10-7.6c-1.8-1-8.1-3.5-10-3.1c-1.1,0.3-1.2,1.6-1.6,2.9
				c-0.9,2.7-3.1,7-3.2,11.1c-0.2,5.2-0.8,13.8,4.8,12.8c4.5-0.9,9.7-2.9,13.2-4.8C103.1,117.6,104.3,116.1,107.5,115.9"/>
			<path id="path90" inkscape:connector-curvature="0" class="st10" d="M107.5,115.9c0-0.4,0-0.9-0.1-1.3c-1.8-1.2-4.6-1.1-6.6-2.1
				c2.9-0.1,5.1-0.8,7.1-1.8c0-1.1-0.1-2.2-0.1-3.2c-3.2-2.2-6.2-5.5-10-7.6c-1.8-1-8.1-3.5-10-3.1c-1.1,0.3-1.2,1.6-1.6,2.9
				c-0.9,2.7-3.1,7-3.2,11.1c-0.2,5.2-0.8,13.8,4.8,12.8c4.5-0.9,9.7-2.9,13.2-4.8C103.1,117.6,104.3,116.1,107.5,115.9z"/>
			<path id="path92" inkscape:connector-curvature="0" class="st0" d="M110.8,109.7c-0.5,2.8-1.1,3.6-0.8,6.1
				C117.4,120.8,118.8,107.2,110.8,109.7"/>
			<path id="path94" inkscape:connector-curvature="0" class="st10" d="M110.8,109.7c-0.5,2.8-1.1,3.6-0.8,6.1
				C117.4,120.8,118.8,107.2,110.8,109.7z"/>
			<path id="path96" inkscape:connector-curvature="0" class="st1" d="M121.6,107.4c0,0-2.3,3.3-0.7,4.3s3.3,0,4.3,1.7
				s0,2.7,0.3,4.7s2,2.3,3.7,2.7s6.3,1,7-0.7l-2,6l-4,1.3l-12.7-7.3l-0.7-3.7v-7.3"/>
			<path id="path98" inkscape:connector-curvature="0" class="st1" d="M86.6,96.4c-0.4,5.2-0.8,10.4-1.3,15.6
				c-0.7,7.8,1.9,6.4,8.6,6.4c1,0,6.3-1.2,6.7-2c1.8-3.7-3-2.9,2.1-5.7c4.3-2.4,12,1.4,10.2,6.7c-1,1.2-5.1,0.4-6.6,1.1
				c-2.6,1.3-5.2,2.7-7.8,4.1c-3.3,1.7-11,4.2-14.5,1.8c-9-6.1,0.6-21.3,3.8-27.6"/>
			<path id="path100" inkscape:connector-curvature="0" class="st2" d="M95.4,214.5c-9.1,2.1-13.6-3.8-16.4-9.9
				c-2.5,0.6-1.5,3.9-0.9,5.6c1.6,4.5,8.2,10.4,13.5,9.6C94,219.5,97.1,217.4,95.4,214.5"/>
			<path id="path102" inkscape:connector-curvature="0" class="st2" d="M139.7,204.2c0.1,0,0.3,0,0.4,0c2.1-4.3,3.8-8.8,6.4-12.5
				c-1.7-4-13.1-7.6-13-0.4c2.5,1.1,6.7,0.2,8.9,1.6C141.2,196.3,139.4,199.3,139.7,204.2"/>
			<path id="path104" inkscape:connector-curvature="0" class="st2" d="M100,204.1c1.9-3.6,2.6-7.3,5.4-10c1.2-1.2,3.7-2.7,2.5-6.1
				c-0.3-0.8-2.3-2.6-3.5-2.9c-4.3-1.3-14.4-0.3-11,5.1c3.6-0.2,8.4-2.3,11.1,0.3C102.4,193.7,98.7,200.2,100,204.1"/>
			<path id="path106" inkscape:connector-curvature="0" class="st2" d="M138,167.8c-6.5-4.2-13.8-8.7-24.5-7.7
				c-2.3,2-3.2,6.4-0.9,9.3c1.2-2,0.4-5.6,3.6-6.2c6.1-1,13.1,3.7,17.5,5.4c2.7,4.6-0.2,6.2-2.7,9.2c-5,6-11.7,13.5-11.4,22.5
				c2,1.5,2.2-2.2,2.5-2.9c2.6-6.1,9.2-13.9,13.9-19.1c1.2-1.3,3.1-2.5,3.3-3.4C140,172.4,137.8,169.4,138,167.8"/>
			<path id="path108" inkscape:connector-curvature="0" class="st2" d="M52.1,172.2c-2,1.2-2.5,6.3-4.9,6.4
				c-3.4,0.2-2.8-6.7-2.8-10.7c-2.4,2.1-2.8,8.7-1,12.1c-2,1-2.9-1.1-4-1.8C40.8,188.5,54.4,183,52.1,172.2"/>
			<path id="path110" inkscape:connector-curvature="0" class="st2" d="M142.2,163.5c-3-5.8-7.3-12.1-16.2-12.3
				c-0.2,1.9-0.3,4.7,0,5.8C132.8,157.7,137,161.1,142.2,163.5"/>
			<path id="path112" inkscape:connector-curvature="0" class="st2" d="M99.5,159.8c5.7-3,16.1-3.3,23.8-3.1
				c0.4-1.7,0.4-3.8,0.4-5.8C113.9,150.4,102.1,152.8,99.5,159.8"/>
			<path id="path114" inkscape:connector-curvature="0" class="st2" d="M98.4,154.2c3.9-9.9,17.4-8.7,28.8-8.5
				c-0.5-1.3-1.6-2.8-2.9-3.3c-3.6-1.5-13.7-2.6-18.8,0.1c-3.2,1.7-5.3,5.6-7,7.8C97.7,151.4,93.4,154.2,98.4,154.2"/>
			<path id="path116" inkscape:connector-curvature="0" class="st11" d="M137.6,99.8c-4.6-7.9-9-16-14.5-23c2.3,6.7,3.3,18,3.6,26.6
				C131.5,105.7,135.6,103,137.6,99.8"/>
			<path id="path118" inkscape:connector-curvature="0" class="st2" d="M162.4,71.5c-5.2-1-8.8-6-13.8-5.7
				C151.3,69.6,156.1,71.3,162.4,71.5"/>
			<path id="path120" inkscape:connector-curvature="0" class="st2" d="M164.6,63.4c-4.2-0.4-9.1-1.1-13.4-0.8
				C153.2,65.7,161,64.6,164.6,63.4"/>
			<path id="path122" inkscape:connector-curvature="0" class="st2" d="M166.1,56.4c-4.7-0.1-10.6,0-15.1,0.4
				C153.7,59.6,163,57.9,166.1,56.4"/>
			<path id="path124" inkscape:connector-curvature="0" class="st6" d="M128.7,37.4c0.7-5.9,3-11.9,2.7-18.4
				c-2.6-0.9-4.1-1.7-7.6-1.6c-0.2,5.5-1,14-0.8,19.2C124.7,36.4,127.3,37.7,128.7,37.4"/>
			<path id="path126" inkscape:connector-curvature="0" class="st3" d="M121,124.8c-2.4-1.5-4.4-3.5-6.7-5.1
				c-5.1-0.3-7.8,0.3-11.5,3.3c0.1,0.2,0.4,0.1,0.4,0.4C108.7,121,115.6,124.4,121,124.8"/>
			<path id="path128" inkscape:connector-curvature="0" class="st11" d="M92.6,88c1.5,6.4,7.3,9.8,12.6,13.3
				c5.5-6.9,8.8-15.8,12.4-24.4C109,79.5,100.2,83.7,92.6,88"/>
			<path id="path130" inkscape:connector-curvature="0" class="st2" d="M123,36.5c-0.2-5.3,0.5-13.7,0.8-19.2c3.5,0,5,0.8,7.6,1.6
				c0.3,6.5-2.1,12.5-2.7,18.4C127.3,37.7,124.7,36.4,123,36.5z M68.5,66.5c2.3-21.2,5.7-39.1,11.8-57.9c13.6-4.1,30-4.5,42.1-0.8
				c-2.2,10.6-1.2,23.5-2.5,34.8c-1,8.5-0.5,17.1-1.8,25.7C103.4,71.5,82.8,69.1,68.5,66.5z M121.4,68.3c-0.1-9.1,0.4-18.1,1.1-27.2
				c3.5,0.5,5.9,0.9,9.1,1.6c-1.1,8.8-0.9,18.7-3.1,26.4C126.1,69.1,123.9,69.1,121.4,68.3z M139.2,69.8c-1.7,0.4-3.6,0-5.2,0
				c0.7-7.4,2.6-15.6,3.2-23.4c2.5-0.1,3.8,1.1,5.9,1.5C143.2,54.7,142.5,64.1,139.2,69.8L139.2,69.8z M166.1,45.2
				c5.2,1.3,8.5,7.6,7,14.2c-1,4.4-2.7,12.7-4.6,15.5c-1.4,2.1-5.1,4.8-8.1,2.9c-4.8-3.1-13.4-4-16.9-7.8c1.8-5.9,2.3-14,3.1-21.5
				c6.1-0.4,13.5,1.7,18.5-0.5c-3.5-1.1-8.1-1.1-11.1-2.8C156.5,44,162.3,44.3,166.1,45.2L166.1,45.2z M117.7,76.9
				c-3.7,8.6-7,17.5-12.4,24.4C100,97.7,94.1,94.4,92.6,88C100.2,83.7,109,79.5,117.7,76.9z M126.7,103.5
				c-0.3-8.6-1.3-19.9-3.6-26.6c5.5,7,9.9,15.1,14.5,23C135.6,103,131.5,105.7,126.7,103.5z M116.5,107.1c-2.1,0.2-3.8-2.4-6.5-1.3
				c-0.6-0.7-1.2-1.4-1.8-2.1c5.9-7.2,8.7-17.3,13.2-25.8c2.5,8.1,2.2,17,2.7,25.8C120.7,103.6,118.8,106.9,116.5,107.1z
				 M109.9,115.8c-0.2-2.5,0.3-3.3,0.8-6.1C118.8,107.2,117.4,120.8,109.9,115.8z M101,118.7c-3.5,1.9-8.7,4-13.2,4.8
				c-5.6,1.1-5-7.6-4.8-12.8c0.2-4.1,2.3-8.4,3.2-11.1c0.4-1.3,0.5-2.6,1.6-2.9c1.9-0.4,8.2,2.1,10,3.1c3.8,2.1,6.8,5.4,10,7.6
				c0,1.1,0.1,2.2,0.1,3.2c-1.9,1-4.2,1.7-7.1,1.8c1.9,1,4.8,1,6.6,2.1c0,0.4,0,0.9,0.1,1.3C104.3,116.1,103.1,117.6,101,118.7z
				 M67.7,124.8c-2.9-2.9,8.1-6.9,11.6-7.1c0,1.9,1.1,3.6,0.8,4.9C76,123.3,70.6,122.8,67.7,124.8z M103.3,123.4
				c0-0.3-0.4-0.2-0.4-0.4c3.7-2.9,6.5-3.5,11.5-3.3c2.3,1.7,4.3,3.6,6.7,5.1C115.6,124.4,108.7,121,103.3,123.4z M135.9,113.5
				c-0.2,3.3-1,9.9-3,11.1c-4.2,2.5-11.7-5-14.9-6.1c0.3-1,0.9-1.8,1-3.1c1.9,0.5,4.2,0.1,5.8-0.7c-1.9-0.2-4-0.2-5.2-1.1
				c-0.5-1.3,0.1-3.1-0.2-5c4.5-1.3,9.6-1.9,15.2-2.1C135.7,108.1,136.1,110.8,135.9,113.5z M62.9,121.9c-0.9,0.6-7,8.6-7.9,8.3
				c-11.1-4.4-21.5-11.9-30.7-19.1c8.8-19,12.4-42.2,13-64.6c10.1-4.7,19-11.6,32.8-12.3c-1.6,11.2-3,21.3-3.9,31.9
				c-3.5,1.5-8.4-0.1-11.6,0.5c0,3.9,4.9,1.7,5.3,4.3c0.3,2-2.7,2.1-1.7,5.2c2.5-0.9,3.9-2.9,6.5-3.7c2.5,5.4,0,14.9,0.3,19.4
				c0.1,0.8,0.4,4.7,2.3,4c1.7-0.6-0.1-10.2,0.1-14.5c0.2-3.9-0.5-7.7,1.1-10.2c13.3,1.8,26.8,3,41.1,3.4c-3.2,1.4-6.9,2.6-11,5
				c-2.2,1.3-9.3,3.9-9.9,6c-1,3.4,2.7,5.2,3.3,8.1c-6.7-3.7-8,3.5-9.6,8.6c-1.4,4.6-2.3,8-2.6,10.7C74,115.6,67.9,118.4,62.9,121.9
				L62.9,121.9z M130.1,129.2c9.2,4.5,10.9-16.8,7.3-23.6c0.6-2,2.5-2.8,3.3-4.7c-5.2-9.2-10.9-17.9-16.2-27
				c3.9,2.4,9.5,0.4,14.1,2.3c1.7,0.7,2.9,4.5,4.2,7.6c3.5,8.5,7.2,19.2,8.8,27.3c0.4,1.8,1.4,5.9,1.2,7.5c-0.4,2.9-4.4,5.1-6.4,6.9
				c-3.7,3.4-6.1,6.3-10,9.5C134.8,132.7,131.4,131.1,130.1,129.2L130.1,129.2z M41.7,211.2c-4.4-4.8-3.5-13.9-2.9-20.4
				c8,5,18.5-0.4,18.4-8.9c3.8,0.1,1.4,4.7,0.7,7.7c-2.2,9.8,3.8,20.4,0.3,29.3C51.4,218.5,45.8,215.7,41.7,211.2L41.7,211.2z
				 M73.3,239.3c-10-2.8-22.7-10.1-26.8-19c3.2,0.5,5.4,2.1,8.5,2.3c1.2,0.1,2.7-0.5,4.1-0.2c2.7,0.7,5,6.7,7,9c2,2.2,4.4,3.1,6,5.2
				c1.1,0.5,2.6,0.5,2.7,2.1C74.3,239.1,73.8,239.5,73.3,239.3z M125.2,236.7c-10.3,5.8-27.9,10.2-38.9,4.7
				c-8.9-4.4-20.9-11.8-25-21c3.8-9-1.1-17.2-1.4-26.3c-0.2-4.8,2.3-9.1,2.5-14.3c-1.3-2.2-5.3-2.4-8.1-2.3
				c-0.9,4.7-2.6,9.9-7.4,10.4c-6.8,0.7-11.8-4.9-12.1-10.8c-0.4-6.9,5.3-18.4,13.3-17.6c3.1,0.3,3.9,3.4,7.3,3.4
				c1.8-3.7-2.8-4.8-3.3-7.4c-0.1-0.7,0.4-3.3,0.7-4.6c1.5-6,4.7-13.8,7.9-18.4c4.1-5.8,12.1-6.7,20.7-7.3c1.5,3.3,7.2,3,10.9,2.2
				c-4.4,1.7-8.5,6-11.9,9.7c-3.9,4.3-7.9,8.9-8.1,14.6c7.4-10.2,13.5-19.2,26.9-23.7c10.2-3.4,22,1.6,29.8,7
				c3.2,2.3,5.2,5.9,7.5,9.2c8.6,12.4,12.6,30.1,11.8,47.2c-0.4,7.1-0.3,14.1-2.7,18.9c-2.5,5-10.9,9.4-15.8,4.9
				c-0.9,4.8,4.1,7.8,9.9,6.1C135.5,226.8,131.1,233.3,125.2,236.7L125.2,236.7z M144.4,77.1c8.1,4,23.2,10.8,28.3,0
				c1.9-4,4.1-10.7,5-14.9c1.4-5.8-1.5-18-7.5-20c-5.3-1.7-11.4-1.6-17.8-0.3c-0.7,0.6-1.6,1.7-2.2,2.8c-4.5,0.2-8.8-0.2-12.4-2.1
				c0.3-3.4-1.9-3.9-4.1-4.6c-1.6-6.3,3.2-14.4,2-20.1c-0.8-4.1-5.8-4.7-9.5-5.5c-0.1-2.3,0.2-4.1,0.4-6.1c-0.8-3.1-4.6-4.9-8.2-5.3
				c-11.8-1.4-29.6-2-40.9,2c-3.2,7.7-5.6,17.2-8.3,26c-11-1.2-20,4.8-28.4,8.6c-2.9,1.3-6.9,2.1-8,4.4c-1.1,2.2-0.6,6.5-0.9,10.6
				c-0.7,10.4-1.2,20.4-4,31c-1.2,4.8-3.4,9-4.9,13.6c-1.4,4.3-3.8,9.5-4.4,13.8c-0.9,6.3,5,6.6,8.8,9.4c5.9,4.2,10.5,6.5,16.8,10.4
				c1.9,1.1,7.5,4,8.2,5.3c1.3,2.6-2.2,6.3-3.1,8.3c-1.5,3.2-2.2,6-2.5,9.2c-5.3,0.8-9.4,4-11.8,7.6c-4,5.9-6.8,16.8-3.3,25.2
				c0.3,0.7,1.6,1.9,1.8,2.9c0.4,2-0.7,4.6-0.8,6.7c-0.4,10.8,1.8,20.1,9.1,23.4c3,11.8,13.5,15.7,23.5,21.5
				c3.7,2.2,7.8,3.6,12.1,5.1c15.2,5.6,38.5,4.5,51.2-5c5.4-4,13.9-12.6,17-18.8c8.1-16.3,7.5-43.6,1.9-63.5
				c-0.8-2.7-1.9-6.6-3.4-9.8c-1.1-2.2-4.4-6.7-4-8.7c0.4-2,7.6-7.5,9.1-9c2.8-2.7,8-6.2,8.5-9.6c0.5-3.6-1.6-8.5-2.6-12
				C151.7,98.1,148.4,87.4,144.4,77.1"/>
			<path id="path132" inkscape:connector-curvature="0" class="st7" d="M90.5,157.3c0.4,0.6,2.9,1.5,6.2-0.2c0,0-4-0.7-3.7-7.3
				l-1.7,0.3C91.4,150.1,89.7,156.1,90.5,157.3"/>
			<path id="path134" inkscape:connector-curvature="0" class="st12" d="M119.7,99.9c0-1-0.8-1.8-1.8-1.8c-1,0-1.8,0.8-1.8,1.8
				c0,1,0.8,1.8,1.8,1.8C118.9,101.8,119.7,100.9,119.7,99.9"/>
			<path id="path136" inkscape:connector-curvature="0" class="st12" d="M121.6,91.4c0-1-0.8-1.8-1.8-1.8c-1,0-1.8,0.8-1.8,1.8
				s0.8,1.8,1.8,1.8C120.7,93.3,121.6,92.4,121.6,91.4"/>
		</g>
	</g>
</g>
<g id="Слой_2">
	
		<linearGradient id="SVGID_1_" gradientUnits="userSpaceOnUse" x1="-190.142" y1="551.6862" x2="-190.2631" y2="551.4036" gradientTransform="matrix(240 0 0 -240 45888 132481)">
		<stop  offset="0" style="stop-color:#37AEE2"/>
		<stop  offset="1" style="stop-color:#1E96C8"/>
	</linearGradient>
	<path class="st13" d="M243.8,60.8c31.5,0,57.1,25.6,57.1,57.1S275.3,175,243.8,175c-30.7,0.3-62-19.9-83.2-42.1
		c-4.6-5.3,33.7,12.3,29.4,3.9c-2.1-5.9-3.2-12.3-3.2-18.9C186.7,86.4,212.3,60.8,243.8,60.8z"/>
	<path class="st14" d="M233.3,144.1c-1.8,0-1.5-0.7-2.2-2.5l-5.4-17.9l41.9-24.8"/>
	<path class="st15" d="M233.3,144.1c1.4,0,2.1-0.7,2.9-1.4l7.6-7.4l-9.5-5.7"/>
	
		<linearGradient id="SVGID_2_" gradientUnits="userSpaceOnUse" x1="-189.0044" y1="550.3862" x2="-188.9133" y2="550.2123" gradientTransform="matrix(130.4927 0 0 -109.4496 24911.5234 60358.8086)">
		<stop  offset="0" style="stop-color:#EFF7FC"/>
		<stop  offset="1" style="stop-color:#FFFFFF"/>
	</linearGradient>
	<path class="st16" d="M234.3,129.5l23,17c2.6,1.4,4.5,0.7,5.2-2.4l9.4-44.1c1-3.8-1.5-5.6-4-4.4l-55,21.2c-3.8,1.5-3.7,3.6-0.7,4.5
		l14.1,4.4L259,105c1.5-0.9,3-0.4,1.8,0.6"/>
</g>
</svg>
