<?xml version="1.0" encoding="utf-8"?>
<!-- Generator: Adobe Illustrator 22.1.0, SVG Export Plug-In . SVG Version: 6.00 Build 0)  -->
<svg version="1.1" xmlns="http://www.w3.org/2000/svg" xmlns:xlink="http://www.w3.org/1999/xlink" x="0px" y="0px"
	 viewBox="0 0 100 103.9" style="enable-background:new 0 0 100 103.9;" xml:space="preserve">
<style type="text/css">
	.st0{fill:#D33833;}
	.st1{fill:#EF3D3A;}
	.st2{fill:#231F20;}
	.st3{fill:#F0D6B7;}
	.st4{fill:#335061;}
	.st5{fill:#6D6B6D;}
	.st6{fill:#DCD9D8;}
	.st7{fill:#F7E4CD;}
	.st8{fill:#49728B;}
	.st9{fill:#FFFFFF;}
	.st10{fill:none;stroke:#D33833;stroke-width:2;}
	.st11{fill:#81B0C4;}
	.st12{fill:#1D1919;}
	.st13{fill:url(#SVGID_1_);}
	.st14{fill:#C8DAEA;}
	.st15{fill:#A9C9DD;}
	.st16{fill:url(#SVGID_2_);}
</style>
<g id="svg2" inkscape:version="0.48.0 r9654" sodipodi:docname="logo.svg" xmlns:cc="http://creativecommons.org/ns#" xmlns:dc="http://purl.org/dc/elements/1.1/" xmlns:inkscape="http://www.inkscape.org/namespaces/inkscape" xmlns:rdf="http://www.w3.org/1999/02/22-rdf-syntax-ns#" xmlns:sodipodi="http://sodipodi.sourceforge.net/DTD/sodipodi-0.dtd" xmlns:svg="http://www.w3.org/2000/svg">
	
		<sodipodi:namedview  bordercolor="#666666" borderopacity="1" gridtolerance="10" guidetolerance="10" id="namedview4" inkscape:current-layer="g10" inkscape:cx="-65.859116" inkscape:cy="172.53076" inkscape:pageopacity="0" inkscape:pageshadow="2" inkscape:window-height="844" inkscape:window-maximized="0" inkscape:window-width="1500" inkscape:window-x="2189" inkscape:window-y="496" inkscape:zoom="1" objecttolerance="10" pagecolor="#ffffff" showgrid="false">
		</sodipodi:namedview>
	<g id="g10" transform="matrix(1.25,0,0,-1.25,0,312)" inkscape:groupmode="layer" inkscape:label="ink_ext_XXXXXX">
		<g id="g3393">
			<path id="path22" inkscape:connector-curvature="0" class="st0" d="M59.1,209.4c0-16.4-13-29.7-29.1-29.7
				c-16.1,0-29.1,13.3-29.1,29.7c0,16.4,13,29.7,29.1,29.7C46,239.1,59.1,225.8,59.1,209.4"/>
			<path id="path24" inkscape:connector-curvature="0" class="st1" d="M2.1,202c0,0-2.1,31,26.5,31.9l-2,3.3l-15.5-5.2L6.6,227
				l-3.9-7.4l-2.2-8.6l0.7-5.8"/>
			<path id="path26" inkscape:connector-curvature="0" class="st2" d="M10.1,229.7c-5.1-5.2-8.3-12.4-8.3-20.4l0,0
				c0-8,3.2-15.2,8.3-20.4l0,0c5.1-5.2,12.1-8.4,19.9-8.4l0,0c7.8,0,14.8,3.2,19.9,8.4l0,0c5.1,5.2,8.3,12.4,8.3,20.4l0,0
				c0,8-3.2,15.2-8.3,20.4l0,0c-5.1,5.2-12.1,8.4-19.9,8.4l0,0C22.2,238.1,15.2,234.9,10.1,229.7L10.1,229.7z M8.8,187.6
				C3.4,193.2,0,200.8,0,209.3l0,0c0,8.5,3.4,16.1,8.8,21.7l0,0c5.4,5.5,12.9,9,21.2,9l0,0c8.3,0,15.8-3.4,21.2-9l0,0
				c5.4-5.5,8.8-13.2,8.8-21.7l0,0c0-8.5-3.4-16.1-8.8-21.7l0,0c-5.4-5.5-12.9-9-21.2-9l0,0C21.7,178.6,14.2,182.1,8.8,187.6
				L8.8,187.6"/>
			<path id="path28" inkscape:connector-curvature="0" class="st3" d="M42.2,209.2l-4.4-0.7l-6-0.7l-3.9-0.1l-3.8,0.1l-2.9,0.9
				l-2.5,2.8l-2,5.6l-0.4,1.2l-2.7,0.9l-1.6,2.5l-1.1,3.7l1.2,3.2l2.9,1l2.3-1.1l1.1-2.4l1.3,0.2l0.4,0.6l-0.4,2.5l-0.1,3.2l0.7,4.4
				l0,2.5l2,3.2l3.5,2.5l6.2,2.7l6.9-1l6-4.3l2.8-4.4l1.8-3.2l0.4-8l-1.3-6.9l-2.4-6.1l-2.3-3.2"/>
			<path id="path30" inkscape:connector-curvature="0" class="st4" d="M38.5,190.1l-15.8-0.7v-2.7l1.3-9.3l-0.7-0.8l-11.1,3.8
				l-0.8,1.3l-1.1,12.5l-2.5,7.5l-0.6,1.8l8.9,6.1l2.8,1.1l2.4-3l2.1-1.9l2.4-0.8l1.1-0.3l1.3-5.8l1-1.2l2.5,0.9l-1.8-3.4l9.6-4.5
				L38.5,190.1"/>
			<path id="path32" inkscape:connector-curvature="0" class="st5" d="M12.2,228.7l2.9,1l2.3-1.1l1.1-2.4l1.3,0.2l0.3,1.3l-0.7,2.5
				l0.7,6.1l-0.6,3.3l2,2.3l4.3,3.4l-1.2,1.7l-6.1-3l-2.5-2l-1.4-3.1l-2.2-3l-0.7-3.5L12.2,228.7"/>
			<path id="path34" inkscape:connector-curvature="0" class="st6" d="M16.7,239.1c0,0,1.7,4.1,8.3,6.1c6.6,2,0.3,1.4,0.3,1.4
				l-7.2-2.8l-2.8-2.8l-1.2-2.2L16.7,239.1"/>
			<path id="path36" inkscape:connector-curvature="0" class="st6" d="M13.4,229.5c0,0-2.3,7.8,6.5,8.9l-0.3,1.3l-6.1-1.4l-1.8-5.8
				l0.4-3.8L13.4,229.5"/>
			<path id="path38" inkscape:connector-curvature="0" class="st7" d="M17,219.2l1.5,1.4c0,0,0.7-0.1,0.8-0.9
				c0.1-0.8,0.4-7.8,5.2-11.5c0.4-0.3-3.5,0.6-3.5,0.6l-3.5,5.5"/>
			<path id="path40" inkscape:connector-curvature="0" class="st7" d="M37.4,221.3c0,0,0.3,3.4,1.2,3.1c0.9-0.3,0.9-1.2,0.9-1.2
				S37.2,221.8,37.4,221.3"/>
			<path id="path42" inkscape:connector-curvature="0" class="st7" d="M46.5,233.6c0,0-1.8-0.4-2-2c-0.2-1.6,2-0.3,2.3-0.2"/>
			<path id="path44" inkscape:connector-curvature="0" class="st7" d="M33.1,233.5c0,0-2.4-0.3-2.4-1.9c0-1.6,2.8-1.4,3.5-0.8"/>
			<path id="path46" inkscape:connector-curvature="0" class="st7" d="M18.1,226.3c0,0-4.2,2.5-4.7,0.1c-0.4-2.4-1.4-4.2,0.7-6.8
				l-1.4,0.4l-1.3,3.4l-0.4,3.3l2.5,2.7l2.9-0.2L18,228L18.1,226.3"/>
			<path id="path48" inkscape:connector-curvature="0" class="st7" d="M20.1,233.3c0,0,1.9,9.7,11.4,11.6c7.8,1.6,12-0.3,13.5-2.1
				c0,0-7,8.3-13.6,5.8c-6.6-2.5-11.5-7.2-11.4-10.2C20.1,233.3,20.1,233.3,20.1,233.3"/>
			<path id="path50" inkscape:connector-curvature="0" class="st7" d="M45.8,241.7c0,0-3.2,0.1-3.3-2.8c0,0,0-0.4,0.2-0.9
				c0,0,2.5,2.9,4.1,1.3"/>
			<path id="path52" inkscape:connector-curvature="0" class="st7" d="M31.7,237.7c0,0-0.6,4.4-4.3,1.9c-2.4-1.7-2.2-4-1.8-4.4
				c0.4-0.4,0.3-1.3,0.7-0.7c0.3,0.6,0.2,2.6,1.4,3.2C28.9,238.2,30.9,238.8,31.7,237.7"/>
			<path id="path54" inkscape:connector-curvature="0" class="st8" d="M21.3,207.8l-10.4-4.7c0,0,4.3-17.2,2.1-22.5l-1.6,0.6
				l-0.1,6.5l-2.9,12.4l-1.2,3.4l10.9,7.3L21.3,207.8"/>
			<path id="path56" inkscape:connector-curvature="0" class="st8" d="M22.4,198.3l1.5-1.8v-6.6h-1.8c0,0-0.2,4.7-0.2,5.2
				c0,0.6,0.2,2.5,0.2,2.5"/>
			<path id="path58" inkscape:connector-curvature="0" class="st8" d="M22.4,188.9l-5-0.2l1.4-1l3.5-0.6"/>
			<path id="path60" inkscape:connector-curvature="0" class="st4" d="M39.5,190l4.1,0.1l1-10.2l-4.2-0.6L39.5,190"/>
			<path id="path62" inkscape:connector-curvature="0" class="st4" d="M40.6,190l6.2,0.3c0,0,2.5,6.4,2.5,6.8s2.2,9.3,2.2,9.3
				l-5,5.2l-1,0.9l-2.7-2.7v-10.3L40.6,190"/>
			<path id="path64" inkscape:connector-curvature="0" class="st8" d="M43.3,190.7l-3.9-0.8l0.6-3.1c1.4-0.7,3.9,1.1,3.9,1.1"/>
			<path id="path66" inkscape:connector-curvature="0" class="st8" d="M43.4,210.1l7.8-5.8l0.2,2.7l-5.9,5.4L43.4,210.1"/>
			<path id="path68" inkscape:connector-curvature="0" class="st9" d="M26.2,168.1l-2.3,9.3l-1.1,6.9l-0.2,5.1L33,190l6.5,0
				l-0.6-11.6l1-9l-0.1-1.7l-8.4-0.7L26.2,168.1"/>
			<path id="path70" inkscape:connector-curvature="0" class="st6" d="M38,190.1c0,0-0.6-11.5,1.1-19.7c0,0-3.3-2.1-8.2-2.7l9.3,0.3
				l1.1,0.7L40,186.9l-0.3,3.9"/>
			<path id="path72" inkscape:connector-curvature="0" class="st9" d="M44.7,180.8l4.3,1.2l8.2,0.4l1.2,3.8l-2.2,6.5l-2.5,0.3
				l-3.5-1.1l-3.4-1.7l-1.8,0.3l-1.4-0.6"/>
			<path id="path74" inkscape:connector-curvature="0" class="st6" d="M44.7,183c0,0,2.9,1.3,3.3,1.2l-1.2,6.1l1.4,0.6
				c0,0,1-5.8,1-6.4c0,0,6.2-0.3,6.8-0.3c0,0,1.3,2.5,1,5.2l1.2-3.5l0.1-2l-1.8-2.7l-2-0.4l-3.3,0.1l-1.1,1.4l-3.9-0.6l-1.2-0.4"/>
			<path id="path76" inkscape:connector-curvature="0" class="st9" d="M40.3,190.8l-2.4,6.2l-2.5,3.7c0,0,0.6,1.6,1.3,1.6
				s2.5,0,2.5,0l2.4-0.9l-0.2-4.1L40.3,190.8"/>
			<path id="path78" inkscape:connector-curvature="0" class="st6" d="M40.8,193c0,0-3.1,6-3.1,6.9c0,0,0.6,1.3,1.3,1
				c0.8-0.3,2.4-1.2,2.4-1.2v2.1l-3.8,0.8l-2.5-0.3l4.3-10.2l0.9-0.1"/>
			<path id="path80" inkscape:connector-curvature="0" class="st9" d="M27.2,207.6l-3.1,0.3l-2.9,0.9v-1l1.4-1.6l4.4-2"/>
			<path id="path82" inkscape:connector-curvature="0" class="st6" d="M22.3,207.2c0,0,3.4-1.4,4.5-1.1l0.1-1.3l-3.1,0.7l-1.9,1.3
				L22.3,207.2"/>
			<path id="path84" inkscape:connector-curvature="0" class="st0" d="M44.7,201.9c-1.9,0.1-3.6,0.3-5.1,0.7
				c0.1,0.6-0.1,1.2,0.1,1.6c0.4,0.3,1.1,0.3,1.7,0.4c-0.5,0.3-1.3,0.4-1.9,0.2c0,0.4-0.2,0.7-0.3,1c1.1,0.4,3.6,2.9,5,2
				c0.7-0.4,1-2.6,1-3.7C45.2,203.3,45.1,202.4,44.7,201.9"/>
			<path id="path86" inkscape:connector-curvature="0" class="st10" d="M44.7,201.9c-1.9,0.1-3.6,0.3-5.1,0.7
				c0.1,0.6-0.1,1.2,0.1,1.6c0.4,0.3,1.1,0.3,1.7,0.4c-0.5,0.3-1.3,0.4-1.9,0.2c0,0.4-0.2,0.7-0.3,1c1.1,0.4,3.6,2.9,5,2
				c0.7-0.4,1-2.6,1-3.7C45.2,203.3,45.1,202.4,44.7,201.9z"/>
			<path id="path88" inkscape:connector-curvature="0" class="st0" d="M35.7,205c0-0.1,0-0.3,0-0.4c-0.6-0.4-1.5-0.4-2.2-0.7
				c0.9,0,1.7-0.3,2.3-0.6c0-0.4,0-0.7,0-1.1c-1.1-0.7-2.1-1.8-3.3-2.5c-0.6-0.3-2.7-1.2-3.3-1c-0.4,0.1-0.4,0.5-0.5,1
				c-0.3,0.9-1,2.3-1.1,3.7c-0.1,1.7-0.3,4.6,1.6,4.2c1.5-0.3,3.2-1,4.4-1.6C34.3,205.5,34.7,205,35.7,205"/>
			<path id="path90" inkscape:connector-curvature="0" class="st10" d="M35.7,205c0-0.1,0-0.3,0-0.4c-0.6-0.4-1.5-0.4-2.2-0.7
				c0.9,0,1.7-0.3,2.3-0.6c0-0.4,0-0.7,0-1.1c-1.1-0.7-2.1-1.8-3.3-2.5c-0.6-0.3-2.7-1.2-3.3-1c-0.4,0.1-0.4,0.5-0.5,1
				c-0.3,0.9-1,2.3-1.1,3.7c-0.1,1.7-0.3,4.6,1.6,4.2c1.5-0.3,3.2-1,4.4-1.6C34.3,205.5,34.7,205,35.7,205z"/>
			<path id="path92" inkscape:connector-curvature="0" class="st0" d="M36.8,202.9c-0.2,0.9-0.4,1.2-0.3,2
				C39,206.6,39.5,202.1,36.8,202.9"/>
			<path id="path94" inkscape:connector-curvature="0" class="st10" d="M36.8,202.9c-0.2,0.9-0.4,1.2-0.3,2
				C39,206.6,39.5,202.1,36.8,202.9z"/>
			<path id="path96" inkscape:connector-curvature="0" class="st1" d="M40.4,202.1c0,0-0.8,1.1-0.2,1.4c0.6,0.3,1.1,0,1.4,0.6
				c0.3,0.6,0,0.9,0.1,1.6c0.1,0.7,0.7,0.8,1.2,0.9c0.6,0.1,2.1,0.3,2.3-0.2l-0.7,2l-1.3,0.4l-4.2-2.4l-0.2-1.2v-2.4"/>
			<path id="path98" inkscape:connector-curvature="0" class="st1" d="M28.8,198.5c-0.1,1.7-0.3,3.5-0.4,5.2
				c-0.2,2.6,0.6,2.1,2.9,2.1c0.3,0,2.1-0.4,2.2-0.7c0.6-1.2-1-1,0.7-1.9c1.4-0.8,4,0.5,3.4,2.2c-0.3,0.4-1.7,0.1-2.2,0.4
				c-0.9,0.4-1.7,0.9-2.6,1.3c-1.1,0.6-3.6,1.4-4.8,0.6c-3-2,0.2-7.1,1.2-9.2"/>
			<path id="path100" inkscape:connector-curvature="0" class="st2" d="M31.7,237.7c-3,0.7-4.5-1.3-5.4-3.3
				c-0.8,0.2-0.5,1.3-0.3,1.9c0.5,1.5,2.7,3.5,4.5,3.2C31.2,239.4,32.3,238.7,31.7,237.7"/>
			<path id="path102" inkscape:connector-curvature="0" class="st2" d="M46.4,234.3c0,0,0.1,0,0.1,0c0.7-1.4,1.3-2.9,2.1-4.2
				c-0.6-1.3-4.4-2.5-4.3-0.1c0.8,0.4,2.2,0.1,3,0.5C46.9,231.7,46.3,232.7,46.4,234.3"/>
			<path id="path104" inkscape:connector-curvature="0" class="st2" d="M33.2,234.3c0.6-1.2,0.9-2.4,1.8-3.3c0.4-0.4,1.2-0.9,0.8-2
				c-0.1-0.3-0.8-0.9-1.2-1c-1.4-0.4-4.8-0.1-3.7,1.7c1.2-0.1,2.8-0.8,3.7,0.1C34,230.8,32.8,233,33.2,234.3"/>
			<path id="path106" inkscape:connector-curvature="0" class="st2" d="M45.9,222.2c-2.2-1.4-4.6-2.9-8.1-2.6
				c-0.8,0.7-1,2.1-0.3,3.1c0.4-0.7,0.1-1.9,1.2-2.1c2-0.3,4.4,1.2,5.8,1.8c0.9,1.5-0.1,2.1-0.9,3c-1.7,2-3.9,4.5-3.8,7.5
				c0.7,0.5,0.7-0.7,0.8-1c0.9-2,3-4.6,4.6-6.3c0.4-0.4,1-0.8,1.1-1.1C46.5,223.7,45.8,222.7,45.9,222.2"/>
			<path id="path108" inkscape:connector-curvature="0" class="st2" d="M17.3,223.7c-0.7,0.4-0.8,2.1-1.6,2.1
				c-1.1,0.1-0.9-2.2-0.9-3.5c-0.8,0.7-0.9,2.9-0.3,4c-0.7,0.3-0.9-0.4-1.3-0.6C13.6,229.1,18.1,227.3,17.3,223.7"/>
			<path id="path110" inkscape:connector-curvature="0" class="st2" d="M47.3,220.8c-1-1.9-2.4-4-5.4-4.1c-0.1,0.6-0.1,1.6,0,1.9
				C44.1,218.8,45.5,220,47.3,220.8"/>
			<path id="path112" inkscape:connector-curvature="0" class="st2" d="M33.1,219.5c1.9-1,5.4-1.1,7.9-1c0.1-0.6,0.1-1.3,0.1-1.9
				C37.8,216.4,33.9,217.2,33.1,219.5"/>
			<path id="path114" inkscape:connector-curvature="0" class="st2" d="M32.7,217.7c1.3-3.3,5.8-2.9,9.6-2.8c-0.2-0.4-0.5-0.9-1-1.1
				c-1.2-0.5-4.6-0.9-6.2,0c-1.1,0.6-1.8,1.8-2.3,2.6C32.5,216.8,31.1,217.7,32.7,217.7"/>
			<path id="path116" inkscape:connector-curvature="0" class="st11" d="M45.7,199.6c-1.5-2.6-3-5.3-4.8-7.6c0.8,2.2,1.1,6,1.2,8.8
				C43.7,201.6,45.1,200.7,45.7,199.6"/>
			<path id="path118" inkscape:connector-curvature="0" class="st2" d="M54,190.2c-1.7-0.3-2.9-2-4.6-1.9
				C50.3,189.6,51.9,190.1,54,190.2"/>
			<path id="path120" inkscape:connector-curvature="0" class="st2" d="M54.7,187.5c-1.4-0.1-3-0.4-4.5-0.3
				C50.9,188.3,53.5,187.9,54.7,187.5"/>
			<path id="path122" inkscape:connector-curvature="0" class="st2" d="M55.2,185.2c-1.6,0-3.5,0-5,0.1
				C51.1,186.3,54.2,185.7,55.2,185.2"/>
			<path id="path124" inkscape:connector-curvature="0" class="st6" d="M42.8,178.9c0.2-2,1-4,0.9-6.1c-0.9-0.3-1.4-0.5-2.5-0.5
				c-0.1,1.8-0.3,4.6-0.3,6.4C41.5,178.5,42.3,179,42.8,178.9"/>
			<path id="path126" inkscape:connector-curvature="0" class="st3" d="M40.2,207.9c-0.8-0.5-1.5-1.2-2.2-1.7
				c-1.7-0.1-2.6,0.1-3.8,1.1c0,0.1,0.1,0,0.1,0.1C36.1,206.6,38.4,207.8,40.2,207.9"/>
			<path id="path128" inkscape:connector-curvature="0" class="st11" d="M30.8,195.7c0.5,2.1,2.4,3.2,4.2,4.4
				c1.8-2.3,2.9-5.3,4.1-8.1C36.2,192.9,33.3,194.3,30.8,195.7"/>
			<path id="path130" inkscape:connector-curvature="0" class="st2" d="M40.9,178.6c-0.1-1.8,0.2-4.6,0.3-6.4c1.2,0,1.7,0.3,2.5,0.5
				c0.1,2.2-0.7,4.2-0.9,6.1C42.3,179,41.5,178.5,40.9,178.6z M22.8,188.5c0.8-7.1,1.9-13,3.9-19.2c4.5-1.4,10-1.5,14-0.3
				c-0.7,3.5-0.4,7.8-0.8,11.6c-0.3,2.8-0.2,5.7-0.6,8.6C34.4,190.2,27.5,189.4,22.8,188.5z M40.4,189.1c0-3,0.1-6,0.4-9.1
				c1.2,0.2,2,0.3,3,0.5c-0.4,2.9-0.3,6.2-1,8.8C41.9,189.4,41.2,189.4,40.4,189.1z M46.3,189.6c-0.6,0.1-1.2,0-1.7,0
				c0.2-2.5,0.8-5.2,1.1-7.8c0.8,0,1.3,0.4,2,0.5C47.6,184.6,47.4,187.7,46.3,189.6L46.3,189.6z M55.2,181.5
				c1.7,0.4,2.8,2.5,2.3,4.7c-0.3,1.5-0.9,4.2-1.5,5.2c-0.5,0.7-1.7,1.6-2.7,1c-1.6-1-4.4-1.3-5.6-2.6c0.6-2,0.8-4.7,1-7.1
				c2-0.1,4.5,0.6,6.2-0.2c-1.2-0.4-2.7-0.4-3.7-0.9C52,181.1,53.9,181.2,55.2,181.5L55.2,181.5z M39.1,192
				c-1.2,2.9-2.3,5.8-4.1,8.1c-1.8-1.2-3.7-2.3-4.2-4.4C33.3,194.3,36.2,192.9,39.1,192z M42.1,200.8c-0.1-2.9-0.4-6.6-1.2-8.8
				c1.8,2.3,3.3,5,4.8,7.6C45.1,200.7,43.7,201.6,42.1,200.8z M38.7,202c-0.7,0.1-1.3-0.8-2.2-0.4c-0.2-0.2-0.4-0.5-0.6-0.7
				c2-2.4,2.9-5.8,4.4-8.6c0.8,2.7,0.7,5.6,0.9,8.6C40.1,200.9,39.5,202,38.7,202z M36.5,204.9c-0.1-0.8,0.1-1.1,0.3-2
				C39.5,202.1,39,206.6,36.5,204.9z M33.6,205.9c-1.2,0.6-2.9,1.3-4.4,1.6c-1.9,0.4-1.7-2.5-1.6-4.2c0.1-1.4,0.8-2.8,1.1-3.7
				c0.1-0.4,0.2-0.9,0.5-1c0.6-0.1,2.7,0.7,3.3,1c1.3,0.7,2.2,1.8,3.3,2.5c0,0.4,0,0.7,0,1.1c-0.6,0.3-1.4,0.6-2.3,0.6
				c0.6,0.3,1.6,0.3,2.2,0.7c0,0.1,0,0.3,0,0.4C34.7,205,34.3,205.5,33.6,205.9z M22.5,207.9c-1-1,2.7-2.3,3.9-2.4
				c0,0.6,0.4,1.2,0.3,1.6C25.3,207.4,23.5,207.3,22.5,207.9z M34.3,207.4c0-0.1-0.1-0.1-0.1-0.1c1.2-1,2.2-1.2,3.8-1.1
				c0.8,0.5,1.4,1.2,2.2,1.7C38.4,207.8,36.1,206.6,34.3,207.4z M45.2,204.2c-0.1,1.1-0.3,3.3-1,3.7c-1.4,0.8-3.9-1.7-5-2
				c0.1-0.3,0.3-0.6,0.3-1c0.6,0.2,1.4,0,1.9-0.2c-0.6-0.1-1.3-0.1-1.7-0.4c-0.2-0.4,0-1-0.1-1.6c1.5-0.4,3.2-0.6,5.1-0.7
				C45.1,202.4,45.2,203.3,45.2,204.2z M20.9,207c-0.3,0.2-2.3,2.9-2.6,2.8c-3.7-1.5-7.1-4-10.2-6.3c2.9-6.3,4.1-14,4.3-21.5
				c3.4-1.6,6.3-3.8,10.9-4.1c-0.5,3.7-1,7.1-1.3,10.6c-1.1,0.5-2.8,0-3.9,0.1c0,1.3,1.6,0.6,1.8,1.4c0.1,0.7-0.9,0.7-0.6,1.7
				c0.8-0.3,1.3-1,2.2-1.2c0.8,1.8,0,5,0.1,6.5c0,0.3,0.1,1.6,0.8,1.3c0.6-0.2,0-3.4,0-4.8c0.1-1.3-0.2-2.6,0.4-3.4
				c4.4,0.6,8.9,1,13.7,1.1c-1.1,0.5-2.3,0.9-3.7,1.6c-0.7,0.4-3.1,1.3-3.3,2c-0.3,1.1,0.9,1.7,1.1,2.7c-2.2-1.2-2.7,1.2-3.2,2.8
				c-0.5,1.5-0.7,2.7-0.9,3.5C24.6,204.9,22.6,205.8,20.9,207L20.9,207z M43.2,209.4c3.1,1.5,3.6-5.6,2.4-7.8
				c0.2-0.7,0.8-0.9,1.1-1.5c-1.7-3.1-3.6-5.9-5.4-9c1.3,0.8,3.2,0.1,4.7,0.8c0.6,0.2,1,1.5,1.4,2.5c1.2,2.8,2.4,6.4,2.9,9.1
				c0.1,0.6,0.5,1.9,0.4,2.5c-0.1,1-1.5,1.7-2.1,2.3c-1.2,1.1-2,2.1-3.3,3.1C44.8,210.5,43.7,210,43.2,209.4L43.2,209.4z
				 M13.9,236.6c-1.5-1.6-1.2-4.6-1-6.8c2.6,1.7,6.2-0.1,6.1-3c1.3,0,0.5,1.6,0.2,2.6c-0.7,3.2,1.3,6.8,0.1,9.8
				C17.1,239.1,15.2,238.1,13.9,236.6L13.9,236.6z M24.3,246c-3.3-0.9-7.6-3.3-8.9-6.3c1.1,0.2,1.8,0.7,2.8,0.8
				c0.4,0,0.9-0.2,1.4-0.1c0.9,0.2,1.7,2.2,2.3,3c0.7,0.7,1.5,1,2,1.7c0.3,0.2,0.9,0.2,0.9,0.7C24.7,245.9,24.5,246,24.3,246z
				 M41.6,245.1c-3.4,1.9-9.3,3.4-12.9,1.6c-3-1.5-6.9-3.9-8.3-7c1.3-3-0.4-5.7-0.5-8.7c-0.1-1.6,0.8-3,0.8-4.8
				c-0.4-0.7-1.8-0.8-2.7-0.8c-0.3,1.5-0.9,3.3-2.4,3.5c-2.3,0.2-3.9-1.6-4-3.6c-0.1-2.3,1.8-6.1,4.4-5.8c1,0.1,1.3,1.1,2.4,1.1
				c0.6-1.2-0.9-1.6-1.1-2.5c0-0.2,0.1-1.1,0.2-1.5c0.5-2,1.6-4.6,2.6-6.1c1.4-1.9,4-2.2,6.9-2.4c0.5,1.1,2.4,1,3.6,0.7
				c-1.5,0.6-2.8,2-4,3.2c-1.3,1.4-2.6,3-2.7,4.8c2.5-3.4,4.5-6.4,8.9-7.9c3.4-1.1,7.3,0.5,9.9,2.3c1.1,0.8,1.7,2,2.5,3.1
				c2.9,4.1,4.2,10,3.9,15.7c-0.1,2.4-0.1,4.7-0.9,6.3c-0.8,1.7-3.6,3.1-5.2,1.6c-0.3,1.6,1.4,2.6,3.3,2
				C45,241.8,43.6,244,41.6,245.1L41.6,245.1z M48,192.1c2.7,1.3,7.7,3.6,9.4,0c0.6-1.3,1.4-3.6,1.7-4.9c0.5-1.9-0.5-6-2.5-6.6
				c-1.8-0.6-3.8-0.5-5.9-0.1c-0.2,0.2-0.5,0.6-0.7,0.9c-1.5,0.1-2.9-0.1-4.1-0.7c0.1-1.1-0.6-1.3-1.4-1.5c-0.5-2.1,1-4.8,0.7-6.7
				c-0.3-1.4-1.9-1.6-3.2-1.8c0-0.8,0.1-1.4,0.1-2c-0.3-1-1.5-1.6-2.7-1.8c-3.9-0.5-9.8-0.7-13.6,0.7c-1,2.6-1.9,5.7-2.7,8.6
				c-3.7-0.4-6.6,1.6-9.4,2.9c-1,0.4-2.3,0.7-2.7,1.5c-0.4,0.7-0.2,2.2-0.3,3.5c-0.2,3.4-0.4,6.8-1.3,10.3c-0.4,1.6-1.1,3-1.6,4.5
				c-0.5,1.4-1.3,3.2-1.5,4.6c-0.3,2.1,1.7,2.2,2.9,3.1c1.9,1.4,3.5,2.2,5.6,3.4c0.6,0.4,2.5,1.3,2.7,1.8c0.4,0.9-0.7,2.1-1,2.8
				c-0.5,1.1-0.7,2-0.8,3c-1.8,0.3-3.1,1.3-3.9,2.5c-1.3,2-2.3,5.6-1.1,8.4c0.1,0.2,0.5,0.6,0.6,1c0.1,0.7-0.2,1.5-0.3,2.2
				c-0.1,3.6,0.6,6.7,3,7.8c1,3.9,4.5,5.2,7.8,7.2c1.2,0.7,2.6,1.2,4,1.7c5.1,1.9,12.8,1.5,17-1.7c1.8-1.3,4.6-4.2,5.6-6.2
				c2.7-5.4,2.5-14.5,0.6-21.1c-0.3-0.9-0.6-2.2-1.1-3.3c-0.4-0.7-1.5-2.2-1.3-2.9c0.1-0.7,2.5-2.5,3-3c0.9-0.9,2.7-2.1,2.8-3.2
				c0.2-1.2-0.5-2.8-0.9-4C50.4,199.1,49.3,195.5,48,192.1"/>
			<path id="path132" inkscape:connector-curvature="0" class="st7" d="M30.1,218.7c0.1,0.2,0.9,0.5,2.1-0.1c0,0-1.3-0.2-1.2-2.4
				l-0.6,0.1C30.4,216.3,29.8,218.3,30.1,218.7"/>
			<path id="path134" inkscape:connector-curvature="0" class="st12" d="M39.8,199.7c0-0.3-0.3-0.6-0.6-0.6c-0.3,0-0.6,0.3-0.6,0.6
				c0,0.3,0.3,0.6,0.6,0.6C39.5,200.3,39.8,200,39.8,199.7"/>
			<path id="path136" inkscape:connector-curvature="0" class="st12" d="M40.4,196.8c0-0.3-0.3-0.6-0.6-0.6c-0.3,0-0.6,0.3-0.6,0.6
				c0,0.3,0.3,0.6,0.6,0.6C40.1,197.4,40.4,197.2,40.4,196.8"/>
		</g>
	</g>
</g>
<g id="Слой_2">
	
		<linearGradient id="SVGID_1_" gradientUnits="userSpaceOnUse" x1="-190.8484" y1="447.5167" x2="-190.8886" y2="447.4228" gradientTransform="matrix(240 0 0 -240 45888 107429.625)">
		<stop  offset="0" style="stop-color:#37AEE2"/>
		<stop  offset="1" style="stop-color:#1E96C8"/>
	</linearGradient>
	<path class="st13" d="M81,20.5c10.5,0,19,8.5,19,19s-8.5,19-19,19c-10.2,0.1-20.6-6.6-27.7-14c-1.5-1.8,11.2,4.1,9.8,1.3
		c-0.7-2-1.1-4.1-1.1-6.3C62.1,29,70.6,20.5,81,20.5z"/>
	<path class="st14" d="M77.6,48.1c-0.6,0-0.5-0.2-0.7-0.8L75,41.4l13.9-8.3"/>
	<path class="st15" d="M77.6,48.1c0.5,0,0.7-0.2,0.9-0.5l2.5-2.5l-3.2-1.9"/>
	
		<linearGradient id="SVGID_2_" gradientUnits="userSpaceOnUse" x1="-190.2724" y1="446.214" x2="-190.2421" y2="446.1562" gradientTransform="matrix(130.4927 0 0 -109.4496 24911.5234 48877.8359)">
		<stop  offset="0" style="stop-color:#EFF7FC"/>
		<stop  offset="1" style="stop-color:#FFFFFF"/>
	</linearGradient>
	<path class="st16" d="M77.9,43.3l7.6,5.6c0.9,0.5,1.5,0.2,1.7-0.8l3.1-14.7c0.3-1.3-0.5-1.9-1.3-1.5l-18.3,7
		c-1.2,0.5-1.2,1.2-0.2,1.5l4.7,1.5l10.9-6.8c0.5-0.3,1-0.1,0.6,0.2"/>
</g>
</svg>
